<?xml version="1.0" encoding="utf-8" standalone="no"?>
<!DOCTYPE svg PUBLIC "-//W3C//DTD SVG 1.1//EN"
  "http://www.w3.org/Graphics/SVG/1.1/DTD/svg11.dtd">
<svg xmlns:xlink="http://www.w3.org/1999/xlink" width="244.167188pt" height="169.678125pt" viewBox="0 0 244.167188 169.678125" xmlns="http://www.w3.org/2000/svg" version="1.1">
 <metadata>
  <rdf:RDF xmlns:dc="http://purl.org/dc/elements/1.1/" xmlns:cc="http://creativecommons.org/ns#" xmlns:rdf="http://www.w3.org/1999/02/22-rdf-syntax-ns#">
   <cc:Work>
    <dc:type rdf:resource="http://purl.org/dc/dcmitype/StillImage"/>
    <dc:date>2024-09-24T02:29:17.814453</dc:date>
    <dc:format>image/svg+xml</dc:format>
    <dc:creator>
     <cc:Agent>
      <dc:title>Matplotlib v3.7.2, https://matplotlib.org/</dc:title>
     </cc:Agent>
    </dc:creator>
   </cc:Work>
  </rdf:RDF>
 </metadata>
 <defs>
  <style type="text/css">*{stroke-linejoin: round; stroke-linecap: butt}</style>
 </defs>
 <g id="figure_1">
  <g id="patch_1">
   <path d="M 0 169.678125 
L 244.167188 169.678125 
L 244.167188 0 
L 0 0 
z
" style="fill: #ffffff"/>
  </g>
  <g id="axes_1">
   <g id="patch_2">
    <path d="M 41.667187 145.8 
L 236.967188 145.8 
L 236.967188 7.2 
L 41.667187 7.2 
z
" style="fill: #ffffff"/>
   </g>
   <g id="matplotlib.axis_1">
    <g id="xtick_1">
     <g id="line2d_1">
      <path d="M 48.751072 145.8 
L 48.751072 7.2 
" clip-path="url(#p11cd8c6d96)" style="fill: none; stroke: #b0b0b0; stroke-width: 0.8; stroke-linecap: square"/>
     </g>
     <g id="line2d_2">
      <defs>
       <path id="md7c2f92659" d="M 0 0 
L 0 3.5 
" style="stroke: #000000; stroke-width: 0.8"/>
      </defs>
      <g>
       <use xlink:href="#md7c2f92659" x="48.751072" y="145.8" style="stroke: #000000; stroke-width: 0.8"/>
      </g>
     </g>
     <g id="text_1">
      <!-- 0 -->
      <g transform="translate(45.569822 160.398438) scale(0.1 -0.1)">
       <defs>
        <path id="DejaVuSans-30" d="M 2034 4250 
Q 1547 4250 1301 3770 
Q 1056 3291 1056 2328 
Q 1056 1369 1301 889 
Q 1547 409 2034 409 
Q 2525 409 2770 889 
Q 3016 1369 3016 2328 
Q 3016 3291 2770 3770 
Q 2525 4250 2034 4250 
z
M 2034 4750 
Q 2819 4750 3233 4129 
Q 3647 3509 3647 2328 
Q 3647 1150 3233 529 
Q 2819 -91 2034 -91 
Q 1250 -91 836 529 
Q 422 1150 422 2328 
Q 422 3509 836 4129 
Q 1250 4750 2034 4750 
z
" transform="scale(0.015625)"/>
       </defs>
       <use xlink:href="#DejaVuSans-30"/>
      </g>
     </g>
    </g>
    <g id="xtick_2">
     <g id="line2d_3">
      <path d="M 84.61884 145.8 
L 84.61884 7.2 
" clip-path="url(#p11cd8c6d96)" style="fill: none; stroke: #b0b0b0; stroke-width: 0.8; stroke-linecap: square"/>
     </g>
     <g id="line2d_4">
      <g>
       <use xlink:href="#md7c2f92659" x="84.61884" y="145.8" style="stroke: #000000; stroke-width: 0.8"/>
      </g>
     </g>
     <g id="text_2">
      <!-- 2 -->
      <g transform="translate(81.43759 160.398438) scale(0.1 -0.1)">
       <defs>
        <path id="DejaVuSans-32" d="M 1228 531 
L 3431 531 
L 3431 0 
L 469 0 
L 469 531 
Q 828 903 1448 1529 
Q 2069 2156 2228 2338 
Q 2531 2678 2651 2914 
Q 2772 3150 2772 3378 
Q 2772 3750 2511 3984 
Q 2250 4219 1831 4219 
Q 1534 4219 1204 4116 
Q 875 4013 500 3803 
L 500 4441 
Q 881 4594 1212 4672 
Q 1544 4750 1819 4750 
Q 2544 4750 2975 4387 
Q 3406 4025 3406 3419 
Q 3406 3131 3298 2873 
Q 3191 2616 2906 2266 
Q 2828 2175 2409 1742 
Q 1991 1309 1228 531 
z
" transform="scale(0.015625)"/>
       </defs>
       <use xlink:href="#DejaVuSans-32"/>
      </g>
     </g>
    </g>
    <g id="xtick_3">
     <g id="line2d_5">
      <path d="M 120.486609 145.8 
L 120.486609 7.2 
" clip-path="url(#p11cd8c6d96)" style="fill: none; stroke: #b0b0b0; stroke-width: 0.8; stroke-linecap: square"/>
     </g>
     <g id="line2d_6">
      <g>
       <use xlink:href="#md7c2f92659" x="120.486609" y="145.8" style="stroke: #000000; stroke-width: 0.8"/>
      </g>
     </g>
     <g id="text_3">
      <!-- 4 -->
      <g transform="translate(117.305359 160.398438) scale(0.1 -0.1)">
       <defs>
        <path id="DejaVuSans-34" d="M 2419 4116 
L 825 1625 
L 2419 1625 
L 2419 4116 
z
M 2253 4666 
L 3047 4666 
L 3047 1625 
L 3713 1625 
L 3713 1100 
L 3047 1100 
L 3047 0 
L 2419 0 
L 2419 1100 
L 313 1100 
L 313 1709 
L 2253 4666 
z
" transform="scale(0.015625)"/>
       </defs>
       <use xlink:href="#DejaVuSans-34"/>
      </g>
     </g>
    </g>
    <g id="xtick_4">
     <g id="line2d_7">
      <path d="M 156.354378 145.8 
L 156.354378 7.2 
" clip-path="url(#p11cd8c6d96)" style="fill: none; stroke: #b0b0b0; stroke-width: 0.8; stroke-linecap: square"/>
     </g>
     <g id="line2d_8">
      <g>
       <use xlink:href="#md7c2f92659" x="156.354378" y="145.8" style="stroke: #000000; stroke-width: 0.8"/>
      </g>
     </g>
     <g id="text_4">
      <!-- 6 -->
      <g transform="translate(153.173128 160.398438) scale(0.1 -0.1)">
       <defs>
        <path id="DejaVuSans-36" d="M 2113 2584 
Q 1688 2584 1439 2293 
Q 1191 2003 1191 1497 
Q 1191 994 1439 701 
Q 1688 409 2113 409 
Q 2538 409 2786 701 
Q 3034 994 3034 1497 
Q 3034 2003 2786 2293 
Q 2538 2584 2113 2584 
z
M 3366 4563 
L 3366 3988 
Q 3128 4100 2886 4159 
Q 2644 4219 2406 4219 
Q 1781 4219 1451 3797 
Q 1122 3375 1075 2522 
Q 1259 2794 1537 2939 
Q 1816 3084 2150 3084 
Q 2853 3084 3261 2657 
Q 3669 2231 3669 1497 
Q 3669 778 3244 343 
Q 2819 -91 2113 -91 
Q 1303 -91 875 529 
Q 447 1150 447 2328 
Q 447 3434 972 4092 
Q 1497 4750 2381 4750 
Q 2619 4750 2861 4703 
Q 3103 4656 3366 4563 
z
" transform="scale(0.015625)"/>
       </defs>
       <use xlink:href="#DejaVuSans-36"/>
      </g>
     </g>
    </g>
    <g id="xtick_5">
     <g id="line2d_9">
      <path d="M 192.222146 145.8 
L 192.222146 7.2 
" clip-path="url(#p11cd8c6d96)" style="fill: none; stroke: #b0b0b0; stroke-width: 0.8; stroke-linecap: square"/>
     </g>
     <g id="line2d_10">
      <g>
       <use xlink:href="#md7c2f92659" x="192.222146" y="145.8" style="stroke: #000000; stroke-width: 0.8"/>
      </g>
     </g>
     <g id="text_5">
      <!-- 8 -->
      <g transform="translate(189.040896 160.398438) scale(0.1 -0.1)">
       <defs>
        <path id="DejaVuSans-38" d="M 2034 2216 
Q 1584 2216 1326 1975 
Q 1069 1734 1069 1313 
Q 1069 891 1326 650 
Q 1584 409 2034 409 
Q 2484 409 2743 651 
Q 3003 894 3003 1313 
Q 3003 1734 2745 1975 
Q 2488 2216 2034 2216 
z
M 1403 2484 
Q 997 2584 770 2862 
Q 544 3141 544 3541 
Q 544 4100 942 4425 
Q 1341 4750 2034 4750 
Q 2731 4750 3128 4425 
Q 3525 4100 3525 3541 
Q 3525 3141 3298 2862 
Q 3072 2584 2669 2484 
Q 3125 2378 3379 2068 
Q 3634 1759 3634 1313 
Q 3634 634 3220 271 
Q 2806 -91 2034 -91 
Q 1263 -91 848 271 
Q 434 634 434 1313 
Q 434 1759 690 2068 
Q 947 2378 1403 2484 
z
M 1172 3481 
Q 1172 3119 1398 2916 
Q 1625 2713 2034 2713 
Q 2441 2713 2670 2916 
Q 2900 3119 2900 3481 
Q 2900 3844 2670 4047 
Q 2441 4250 2034 4250 
Q 1625 4250 1398 4047 
Q 1172 3844 1172 3481 
z
" transform="scale(0.015625)"/>
       </defs>
       <use xlink:href="#DejaVuSans-38"/>
      </g>
     </g>
    </g>
    <g id="xtick_6">
     <g id="line2d_11">
      <path d="M 228.089915 145.8 
L 228.089915 7.2 
" clip-path="url(#p11cd8c6d96)" style="fill: none; stroke: #b0b0b0; stroke-width: 0.8; stroke-linecap: square"/>
     </g>
     <g id="line2d_12">
      <g>
       <use xlink:href="#md7c2f92659" x="228.089915" y="145.8" style="stroke: #000000; stroke-width: 0.8"/>
      </g>
     </g>
     <g id="text_6">
      <!-- 10 -->
      <g transform="translate(221.727415 160.398438) scale(0.1 -0.1)">
       <defs>
        <path id="DejaVuSans-31" d="M 794 531 
L 1825 531 
L 1825 4091 
L 703 3866 
L 703 4441 
L 1819 4666 
L 2450 4666 
L 2450 531 
L 3481 531 
L 3481 0 
L 794 0 
L 794 531 
z
" transform="scale(0.015625)"/>
       </defs>
       <use xlink:href="#DejaVuSans-31"/>
       <use xlink:href="#DejaVuSans-30" x="63.623047"/>
      </g>
     </g>
    </g>
   </g>
   <g id="matplotlib.axis_2">
    <g id="ytick_1">
     <g id="line2d_13">
      <path d="M 41.667187 136.594588 
L 236.967188 136.594588 
" clip-path="url(#p11cd8c6d96)" style="fill: none; stroke: #b0b0b0; stroke-width: 0.8; stroke-linecap: square"/>
     </g>
     <g id="line2d_14">
      <defs>
       <path id="mcff7e4d18e" d="M 0 0 
L -3.5 0 
" style="stroke: #000000; stroke-width: 0.8"/>
      </defs>
      <g>
       <use xlink:href="#mcff7e4d18e" x="41.667187" y="136.594588" style="stroke: #000000; stroke-width: 0.8"/>
      </g>
     </g>
     <g id="text_7">
      <!-- −100 -->
      <g transform="translate(7.2 140.393807) scale(0.1 -0.1)">
       <defs>
        <path id="DejaVuSans-2212" d="M 678 2272 
L 4684 2272 
L 4684 1741 
L 678 1741 
L 678 2272 
z
" transform="scale(0.015625)"/>
       </defs>
       <use xlink:href="#DejaVuSans-2212"/>
       <use xlink:href="#DejaVuSans-31" x="83.789062"/>
       <use xlink:href="#DejaVuSans-30" x="147.412109"/>
       <use xlink:href="#DejaVuSans-30" x="211.035156"/>
      </g>
     </g>
    </g>
    <g id="ytick_2">
     <g id="line2d_15">
      <path d="M 41.667187 108.501128 
L 236.967188 108.501128 
" clip-path="url(#p11cd8c6d96)" style="fill: none; stroke: #b0b0b0; stroke-width: 0.8; stroke-linecap: square"/>
     </g>
     <g id="line2d_16">
      <g>
       <use xlink:href="#mcff7e4d18e" x="41.667187" y="108.501128" style="stroke: #000000; stroke-width: 0.8"/>
      </g>
     </g>
     <g id="text_8">
      <!-- −75 -->
      <g transform="translate(13.5625 112.300346) scale(0.1 -0.1)">
       <defs>
        <path id="DejaVuSans-37" d="M 525 4666 
L 3525 4666 
L 3525 4397 
L 1831 0 
L 1172 0 
L 2766 4134 
L 525 4134 
L 525 4666 
z
" transform="scale(0.015625)"/>
        <path id="DejaVuSans-35" d="M 691 4666 
L 3169 4666 
L 3169 4134 
L 1269 4134 
L 1269 2991 
Q 1406 3038 1543 3061 
Q 1681 3084 1819 3084 
Q 2600 3084 3056 2656 
Q 3513 2228 3513 1497 
Q 3513 744 3044 326 
Q 2575 -91 1722 -91 
Q 1428 -91 1123 -41 
Q 819 9 494 109 
L 494 744 
Q 775 591 1075 516 
Q 1375 441 1709 441 
Q 2250 441 2565 725 
Q 2881 1009 2881 1497 
Q 2881 1984 2565 2268 
Q 2250 2553 1709 2553 
Q 1456 2553 1204 2497 
Q 953 2441 691 2322 
L 691 4666 
z
" transform="scale(0.015625)"/>
       </defs>
       <use xlink:href="#DejaVuSans-2212"/>
       <use xlink:href="#DejaVuSans-37" x="83.789062"/>
       <use xlink:href="#DejaVuSans-35" x="147.412109"/>
      </g>
     </g>
    </g>
    <g id="ytick_3">
     <g id="line2d_17">
      <path d="M 41.667187 80.407667 
L 236.967188 80.407667 
" clip-path="url(#p11cd8c6d96)" style="fill: none; stroke: #b0b0b0; stroke-width: 0.8; stroke-linecap: square"/>
     </g>
     <g id="line2d_18">
      <g>
       <use xlink:href="#mcff7e4d18e" x="41.667187" y="80.407667" style="stroke: #000000; stroke-width: 0.8"/>
      </g>
     </g>
     <g id="text_9">
      <!-- −50 -->
      <g transform="translate(13.5625 84.206886) scale(0.1 -0.1)">
       <use xlink:href="#DejaVuSans-2212"/>
       <use xlink:href="#DejaVuSans-35" x="83.789062"/>
       <use xlink:href="#DejaVuSans-30" x="147.412109"/>
      </g>
     </g>
    </g>
    <g id="ytick_4">
     <g id="line2d_19">
      <path d="M 41.667187 52.314206 
L 236.967188 52.314206 
" clip-path="url(#p11cd8c6d96)" style="fill: none; stroke: #b0b0b0; stroke-width: 0.8; stroke-linecap: square"/>
     </g>
     <g id="line2d_20">
      <g>
       <use xlink:href="#mcff7e4d18e" x="41.667187" y="52.314206" style="stroke: #000000; stroke-width: 0.8"/>
      </g>
     </g>
     <g id="text_10">
      <!-- −25 -->
      <g transform="translate(13.5625 56.113425) scale(0.1 -0.1)">
       <use xlink:href="#DejaVuSans-2212"/>
       <use xlink:href="#DejaVuSans-32" x="83.789062"/>
       <use xlink:href="#DejaVuSans-35" x="147.412109"/>
      </g>
     </g>
    </g>
    <g id="ytick_5">
     <g id="line2d_21">
      <path d="M 41.667187 24.220745 
L 236.967188 24.220745 
" clip-path="url(#p11cd8c6d96)" style="fill: none; stroke: #b0b0b0; stroke-width: 0.8; stroke-linecap: square"/>
     </g>
     <g id="line2d_22">
      <g>
       <use xlink:href="#mcff7e4d18e" x="41.667187" y="24.220745" style="stroke: #000000; stroke-width: 0.8"/>
      </g>
     </g>
     <g id="text_11">
      <!-- 0 -->
      <g transform="translate(28.304687 28.019964) scale(0.1 -0.1)">
       <use xlink:href="#DejaVuSans-30"/>
      </g>
     </g>
    </g>
   </g>
   <g id="line2d_23">
    <path d="M 50.54446 13.5 
L 52.337848 19.320674 
L 54.131237 21.274599 
L 55.924625 22.213345 
L 57.718013 22.720133 
L 59.511402 22.996096 
L 61.304791 23.131822 
L 63.098178 23.175834 
L 64.891567 23.157635 
L 66.684956 23.097007 
L 68.478343 23.008262 
L 70.271732 22.902381 
L 72.065121 22.788162 
L 73.858509 22.672865 
L 75.651896 22.562596 
L 77.445285 22.462537 
L 79.238674 22.377088 
L 81.032063 22.309958 
L 82.825452 22.264217 
L 84.618838 22.242343 
L 86.412227 22.246241 
L 88.205614 22.277267 
L 89.999001 22.336245 
L 91.792392 22.423483 
L 93.585778 22.538791 
L 95.379165 22.681504 
L 97.172556 22.850501 
L 98.965943 23.044232 
L 100.759329 23.260746 
L 102.55272 23.497725 
L 104.346107 23.752517 
L 106.139498 24.022176 
L 107.932885 24.303499 
L 109.726272 24.593075 
L 111.519663 24.887326 
L 113.313049 25.182553 
L 115.10644 25.474987 
L 116.899827 25.760832 
L 118.693214 26.03632 
L 120.486605 26.297753 
L 122.279996 26.541551 
L 124.073382 26.764298 
L 125.866769 26.962789 
L 127.660156 27.134063 
L 129.453543 27.275447 
L 131.246929 27.384592 
L 133.040325 27.459496 
L 134.833711 27.49854 
L 136.627098 27.500506 
L 138.420485 27.464594 
L 140.213889 27.390441 
L 142.007275 27.278125 
L 143.800662 27.128168 
L 145.594049 26.941533 
L 147.387444 26.719622 
L 149.180831 26.464264 
L 150.974217 26.17769 
L 152.767604 25.862521 
L 154.560991 25.521736 
L 156.354378 25.158644 
L 158.147773 24.776849 
L 159.94116 24.380215 
L 161.734546 23.972821 
L 163.527933 23.558919 
L 165.32132 23.142889 
L 167.114715 22.729188 
L 168.908102 22.322312 
L 170.701488 21.926731 
L 172.494875 21.546849 
L 174.288262 21.186954 
L 176.081657 20.851168 
L 177.875044 20.543402 
L 179.668431 20.267311 
L 181.461817 20.026248 
L 183.255204 19.823229 
L 185.048599 19.660897 
L 186.841977 19.54149 
L 188.635373 19.466805 
L 190.428759 19.438191 
L 192.222146 19.456515 
L 194.015541 19.522157 
L 195.80892 19.634996 
L 197.602315 19.794414 
L 199.395693 19.99929 
L 201.189088 20.248018 
L 202.982484 20.538509 
L 204.775862 20.868211 
L 206.569257 21.234147 
L 208.362635 21.632916 
L 210.15603 22.060757 
L 211.949426 22.51356 
L 213.742804 22.986911 
L 215.536199 23.47616 
L 217.329577 23.976429 
L 219.122973 24.482701 
L 220.916368 24.98984 
L 222.709746 25.492654 
L 224.503141 25.985971 
L 226.29652 26.464651 
L 228.089915 26.923685 
" clip-path="url(#p11cd8c6d96)" style="fill: none; stroke: #1f77b4; stroke-width: 1.5; stroke-linecap: square"/>
   </g>
   <g id="line2d_24">
    <path d="M 50.54446 139.5 
L 52.337848 53.62676 
L 54.131237 37.077859 
L 55.924625 30.95287 
L 57.718013 27.927831 
L 59.511402 26.174749 
L 61.304791 25.058823 
L 63.098178 24.310691 
L 64.891567 23.79915 
L 66.684956 23.453297 
L 68.478343 23.231411 
L 70.271732 23.107025 
L 72.065121 23.06212 
L 73.858509 23.083567 
L 75.651896 23.161159 
L 77.445285 23.286476 
L 79.238674 23.452213 
L 81.032063 23.651776 
L 82.825452 23.87903 
L 84.618838 24.128154 
L 86.412227 24.393555 
L 88.205614 24.669825 
L 89.999001 24.951727 
L 91.792392 25.234195 
L 93.585778 25.512351 
L 95.379165 25.781531 
L 97.172556 26.037312 
L 98.965943 26.275539 
L 100.759329 26.492366 
L 102.55272 26.684279 
L 104.346107 26.848135 
L 106.139498 26.98118 
L 107.932885 27.081086 
L 109.726272 27.145961 
L 111.519663 27.174376 
L 113.313049 27.165369 
L 115.10644 27.11846 
L 116.899827 27.033652 
L 118.693214 26.911426 
L 120.486605 26.752738 
L 122.279996 26.559005 
L 124.073382 26.33209 
L 125.866769 26.074274 
L 127.660156 25.788239 
L 129.453543 25.477027 
L 131.246929 25.144012 
L 133.040325 24.792856 
L 134.833711 24.427477 
L 136.627098 24.051991 
L 138.420485 23.670673 
L 140.213889 23.287904 
L 142.007275 22.908133 
L 143.800662 22.535806 
L 145.594049 22.17533 
L 147.387444 21.831014 
L 149.180831 21.507031 
L 150.974217 21.207353 
L 152.767604 20.935719 
L 154.560991 20.695583 
L 156.354378 20.490077 
L 158.147773 20.321972 
L 159.94116 20.193646 
L 161.734546 20.107052 
L 163.527933 20.063698 
L 165.32132 20.064621 
L 167.114715 20.110381 
L 168.908102 20.201039 
L 170.701488 20.336165 
L 172.494875 20.514835 
L 174.288262 20.735634 
L 176.081657 20.996675 
L 177.875044 21.295607 
L 179.668431 21.629649 
L 181.461817 21.995609 
L 183.255204 22.389919 
L 185.048599 22.808672 
L 186.841977 23.247654 
L 188.635373 23.702408 
L 190.428759 24.168252 
L 192.222146 24.640353 
L 194.015541 25.113765 
L 195.80892 25.58348 
L 197.602315 26.044498 
L 199.395693 26.491852 
L 201.189088 26.920698 
L 202.982484 27.326332 
L 204.775862 27.70426 
L 206.569257 28.050255 
L 208.362635 28.36038 
L 210.15603 28.631059 
L 211.949426 28.859092 
L 213.742804 29.04171 
L 215.536199 29.176602 
L 217.329577 29.261936 
L 219.122973 29.296394 
L 220.916368 29.279176 
L 222.709746 29.21002 
L 224.503141 29.089208 
L 226.29652 28.917566 
L 228.089915 28.696451 
" clip-path="url(#p11cd8c6d96)" style="fill: none; stroke-dasharray: 5.55,2.4; stroke-dashoffset: 0; stroke: #bf00bf; stroke-width: 1.5"/>
   </g>
   <g id="patch_3">
    <path d="M 41.667187 145.8 
L 41.667187 7.2 
" style="fill: none; stroke: #000000; stroke-width: 0.8; stroke-linejoin: miter; stroke-linecap: square"/>
   </g>
   <g id="patch_4">
    <path d="M 236.967188 145.8 
L 236.967188 7.2 
" style="fill: none; stroke: #000000; stroke-width: 0.8; stroke-linejoin: miter; stroke-linecap: square"/>
   </g>
   <g id="patch_5">
    <path d="M 41.667187 145.8 
L 236.967188 145.8 
" style="fill: none; stroke: #000000; stroke-width: 0.8; stroke-linejoin: miter; stroke-linecap: square"/>
   </g>
   <g id="patch_6">
    <path d="M 41.667187 7.2 
L 236.967188 7.2 
" style="fill: none; stroke: #000000; stroke-width: 0.8; stroke-linejoin: miter; stroke-linecap: square"/>
   </g>
   <g id="legend_1">
    <g id="patch_7">
     <path d="M 177.976562 140.8 
L 229.967187 140.8 
Q 231.967187 140.8 231.967187 138.8 
L 231.967187 110.44375 
Q 231.967187 108.44375 229.967187 108.44375 
L 177.976562 108.44375 
Q 175.976562 108.44375 175.976562 110.44375 
L 175.976562 138.8 
Q 175.976562 140.8 177.976562 140.8 
z
" style="fill: #ffffff; opacity: 0.8; stroke: #cccccc; stroke-linejoin: miter"/>
    </g>
    <g id="line2d_25">
     <path d="M 179.976562 116.542188 
L 189.976562 116.542188 
L 199.976562 116.542188 
" style="fill: none; stroke: #1f77b4; stroke-width: 1.5; stroke-linecap: square"/>
    </g>
    <g id="text_12">
     <!-- f(x) -->
     <g transform="translate(207.976562 120.042188) scale(0.1 -0.1)">
      <defs>
       <path id="DejaVuSans-66" d="M 2375 4863 
L 2375 4384 
L 1825 4384 
Q 1516 4384 1395 4259 
Q 1275 4134 1275 3809 
L 1275 3500 
L 2222 3500 
L 2222 3053 
L 1275 3053 
L 1275 0 
L 697 0 
L 697 3053 
L 147 3053 
L 147 3500 
L 697 3500 
L 697 3744 
Q 697 4328 969 4595 
Q 1241 4863 1831 4863 
L 2375 4863 
z
" transform="scale(0.015625)"/>
       <path id="DejaVuSans-28" d="M 1984 4856 
Q 1566 4138 1362 3434 
Q 1159 2731 1159 2009 
Q 1159 1288 1364 580 
Q 1569 -128 1984 -844 
L 1484 -844 
Q 1016 -109 783 600 
Q 550 1309 550 2009 
Q 550 2706 781 3412 
Q 1013 4119 1484 4856 
L 1984 4856 
z
" transform="scale(0.015625)"/>
       <path id="DejaVuSans-78" d="M 3513 3500 
L 2247 1797 
L 3578 0 
L 2900 0 
L 1881 1375 
L 863 0 
L 184 0 
L 1544 1831 
L 300 3500 
L 978 3500 
L 1906 2253 
L 2834 3500 
L 3513 3500 
z
" transform="scale(0.015625)"/>
       <path id="DejaVuSans-29" d="M 513 4856 
L 1013 4856 
Q 1481 4119 1714 3412 
Q 1947 2706 1947 2009 
Q 1947 1309 1714 600 
Q 1481 -109 1013 -844 
L 513 -844 
Q 928 -128 1133 580 
Q 1338 1288 1338 2009 
Q 1338 2731 1133 3434 
Q 928 4138 513 4856 
z
" transform="scale(0.015625)"/>
      </defs>
      <use xlink:href="#DejaVuSans-66"/>
      <use xlink:href="#DejaVuSans-28" x="35.205078"/>
      <use xlink:href="#DejaVuSans-78" x="74.21875"/>
      <use xlink:href="#DejaVuSans-29" x="133.398438"/>
     </g>
    </g>
    <g id="line2d_26">
     <path d="M 179.976562 131.220313 
L 189.976562 131.220313 
L 199.976562 131.220313 
" style="fill: none; stroke-dasharray: 5.55,2.4; stroke-dashoffset: 0; stroke: #bf00bf; stroke-width: 1.5"/>
    </g>
    <g id="text_13">
     <!-- f'(x) -->
     <g transform="translate(207.976562 134.720313) scale(0.1 -0.1)">
      <defs>
       <path id="DejaVuSans-27" d="M 1147 4666 
L 1147 2931 
L 616 2931 
L 616 4666 
L 1147 4666 
z
" transform="scale(0.015625)"/>
      </defs>
      <use xlink:href="#DejaVuSans-66"/>
      <use xlink:href="#DejaVuSans-27" x="35.205078"/>
      <use xlink:href="#DejaVuSans-28" x="62.695312"/>
      <use xlink:href="#DejaVuSans-78" x="101.708984"/>
      <use xlink:href="#DejaVuSans-29" x="160.888672"/>
     </g>
    </g>
   </g>
  </g>
 </g>
 <defs>
  <clipPath id="p11cd8c6d96">
   <rect x="41.667187" y="7.2" width="195.3" height="138.6"/>
  </clipPath>
 </defs>
</svg>
